<svg xmlns="http://www.w3.org/2000/svg" x="0px" y="0px"
width="30" height="30"
viewBox="0 0 172 172"
style=" fill:#000000;"><g transform=""><g fill="none" fill-rule="nonzero" stroke="none" stroke-width="1" stroke-linecap="butt" stroke-linejoin="miter" stroke-miterlimit="10" stroke-dasharray="" stroke-dashoffset="0" font-family="none" font-weight="none" font-size="none" text-anchor="none" style="mix-blend-mode: normal"><path d="M0,172v-172h172v172z" fill="none"></path><g><path d="M123.26667,157.66667v-71.09333l4.58667,-9.17333h25.22667l4.58667,9.17333v71.09333z" fill="#ffffff"></path><path d="M151.36,80.26667l3.44,6.88v67.65333h-28.66667v-67.65333l3.44,-6.88h21.78667M154.8,74.53333h-28.66667l-5.73333,11.46667v74.53333h40.13333v-74.53333l-5.73333,-11.46667z" fill="#788b9c"></path><path d="M129,77.4v-11.46667c0,-6.30667 5.16,-11.46667 11.46667,-11.46667c6.30667,0 11.46667,5.16 11.46667,11.46667v11.46667z" fill="#ffffff"></path><path d="M140.46667,57.33333c4.58667,0 8.6,4.01333 8.6,8.6v8.6h-17.2v-8.6c0,-4.58667 4.01333,-8.6 8.6,-8.6M140.46667,51.6c-8.02667,0 -14.33333,6.30667 -14.33333,14.33333v14.33333h28.66667v-14.33333c0,-8.02667 -6.30667,-14.33333 -14.33333,-14.33333z" fill="#788b9c"></path><path d="M134.73333,54.46667v-11.46667c0,-3.44 2.29333,-5.73333 5.73333,-5.73333c3.44,0 5.73333,2.29333 5.73333,5.73333v11.46667z" fill="#ffffff"></path><path d="M140.46667,40.13333c1.72,0 2.86667,1.14667 2.86667,2.86667v8.6h-5.73333v-8.6c0,-1.72 1.14667,-2.86667 2.86667,-2.86667M140.46667,34.4c-4.58667,0 -8.6,4.01333 -8.6,8.6v14.33333h17.2v-14.33333c0,-4.58667 -4.01333,-8.6 -8.6,-8.6z" fill="#788b9c"></path><path d="M137.6,22.93333h5.73333v17.2h-5.73333z" fill="#788b9c"></path><path d="M117.53333,163.4v-28.66667h17.2v11.46667h11.46667v-11.46667h17.2v28.66667z" fill="#ffffff"></path><path d="M160.53333,137.6v22.93333h-40.13333v-22.93333h11.46667v5.73333v5.73333h5.73333h5.73333h5.73333v-5.73333v-5.73333h11.46667M166.26667,131.86667h-22.93333v11.46667h-5.73333v-11.46667h-22.93333v34.4h51.6v-34.4zM143.33333,86h5.73333v5.73333h-5.73333zM137.6,63.06667h5.73333v5.73333h-5.73333zM131.86667,86h5.73333v5.73333h-5.73333zM143.33333,97.46667h5.73333v5.73333h-5.73333zM131.86667,97.46667h5.73333v5.73333h-5.73333zM143.33333,108.93333h5.73333v5.73333h-5.73333zM131.86667,108.93333h5.73333v5.73333h-5.73333zM143.33333,120.4h5.73333v5.73333h-5.73333zM131.86667,120.4h5.73333v5.73333h-5.73333z" fill="#788b9c"></path><path d="M55.04,163.4l16.05333,-131.86667h35.54667l16.05333,131.86667z" fill="#8bb7f0"></path><path d="M103.77333,34.4l16.05333,126.13333h-61.92l16.05333,-126.13333h29.81333M108.93333,28.66667h-40.13333l-17.2,137.6h74.53333l-17.2,-137.6z" fill="#4e7ab5"></path><path d="M83.13333,163.4l-11.46667,-131.86667h34.4l-11.46667,131.86667z" fill="#c2e8ff"></path><path d="M102.62667,34.4l-10.32,126.13333h-6.88l-10.32,-126.13333h27.52M108.93333,28.66667h-40.13333l11.46667,137.6h17.2l11.46667,-137.6z" fill="#4e7ab5"></path><path d="M77.4,20.06667h22.93333v11.46667h-22.93333z" fill="#8bb7f0"></path><path d="M97.46667,22.93333v5.73333h-17.2v-5.73333h17.2M103.2,17.2h-28.66667v17.2h28.66667v-17.2z" fill="#4e7ab5"></path><path d="M86,5.73333h5.73333v13.76h-5.73333z" fill="#4e7ab5"></path><path d="M8.6,129h45.86667v34.4h-45.86667z" fill="#f5ce85"></path><path d="M51.6,131.86667v28.66667h-40.13333v-28.66667h40.13333M57.33333,126.13333h-51.6v40.13333h51.6v-40.13333z" fill="#967a44"></path><path d="M14.33333,48.73333h34.4v80.26667h-34.4z" fill="#f5ce85"></path><path d="M45.86667,51.6v74.53333h-28.66667v-74.53333h28.66667M51.6,45.86667h-40.13333v86h40.13333v-86z" fill="#967a44"></path><path d="M20.06667,31.53333h22.93333v17.2h-22.93333z" fill="#f5ce85"></path><path d="M40.13333,34.4v11.46667h-17.2v-11.46667h17.2M45.86667,28.66667h-28.66667v22.93333h28.66667v-22.93333z" fill="#967a44"></path><path d="M25.8,20.06667h11.46667v11.46667h-11.46667z" fill="#f5ce85"></path><path d="M34.4,22.93333v5.73333h-5.73333v-5.73333h5.73333M40.13333,17.2h-17.2v17.2h17.2v-17.2z" fill="#967a44"></path><path d="M28.66667,5.73333h5.73333v17.2h-5.73333zM34.4,57.33333h5.73333v5.73333h-5.73333zM28.66667,40.13333h5.73333v5.73333h-5.73333zM22.93333,57.33333h5.73333v5.73333h-5.73333zM34.4,68.8h5.73333v5.73333h-5.73333zM22.93333,68.8h5.73333v5.73333h-5.73333zM34.4,80.26667h5.73333v5.73333h-5.73333z" fill="#967a44"></path><g fill="#967a44"><path d="M22.93333,80.26667h5.73333v5.73333h-5.73333z"></path></g><g fill="#967a44"><path d="M34.4,91.73333h5.73333v5.73333h-5.73333z"></path></g><g fill="#967a44"><path d="M22.93333,91.73333h5.73333v5.73333h-5.73333z"></path></g><g fill="#967a44"><path d="M34.4,103.2h5.73333v5.73333h-5.73333z"></path></g><g fill="#967a44"><path d="M22.93333,103.2h5.73333v5.73333h-5.73333z"></path></g><g fill="#967a44"><path d="M34.4,114.66667h5.73333v5.73333h-5.73333z"></path></g><g fill="#967a44"><path d="M34.4,137.6h11.46667v5.73333h-11.46667z"></path></g><g fill="#967a44"><path d="M17.2,137.6h11.46667v5.73333h-11.46667z"></path></g><g fill="#967a44"><path d="M34.4,149.06667h11.46667v5.73333h-11.46667z"></path></g><g fill="#967a44"><path d="M17.2,149.06667h11.46667v5.73333h-11.46667z"></path></g><g fill="#967a44"><path d="M22.93333,114.66667h5.73333v5.73333h-5.73333z"></path></g></g><path d="" fill="none"></path><path d="" fill="none"></path><path d="" fill="none"></path><path d="" fill="none"></path><path d="" fill="none"></path><path d="" fill="none"></path><path d="" fill="none"></path><path d="" fill="none"></path><path d="" fill="none"></path><path d="" fill="none"></path><path d="" fill="none"></path><path d="" fill="none"></path><path d="" fill="none"></path><path d="" fill="none"></path><path d="" fill="none"></path><path d="" fill="none"></path><path d="" fill="none"></path><path d="" fill="none"></path><path d="" fill="none"></path><path d="" fill="none"></path><path d="" fill="none"></path><path d="" fill="none"></path><path d="" fill="none"></path><path d="" fill="none"></path></g></g></svg>