<?xml version="1.0" encoding="UTF-8" standalone="no"?><svg id="Capa_1" data-name="Capa 1" xmlns="http://www.w3.org/2000/svg" xmlns:xlink="http://www.w3.org/1999/xlink" viewBox="0 0 900 900.01"><defs><clipPath id="clip-path"><path d="M694.1,612.4s21.32,3.21,36.27,11.67a72.37,72.37,0,0,1,19.09,15.69,49.6,49.6,0,0,1,10,19.29A37.29,37.29,0,1,0,786,612.82a43.61,43.61,0,0,1-19.82.93,80.32,80.32,0,0,1-24.38-9.46,86.79,86.79,0,0,1-27.93-26.39h0a291.57,291.57,0,0,0,28.66-108.44h0a86.56,86.56,0,0,1,37.32-8.9,72.4,72.4,0,0,1,24.37,4.05,49.56,49.56,0,0,1,18.28,11.72,37.28,37.28,0,1,0-.11-53.32,43.54,43.54,0,0,1-16.7,10.72,80.39,80.39,0,0,1-25.84,4,87.23,87.23,0,0,1-37.44-8.89h0a291.35,291.35,0,0,0-29.3-108.27h0a86.29,86.29,0,0,1,27.83-26.34,72.49,72.49,0,0,1,23.13-8.69,49.55,49.55,0,0,1,21.69,1A37.29,37.29,0,1,0,759,240.44a43.58,43.58,0,0,1-9.1,17.63,80.33,80.33,0,0,1-20.38,16.39,87.12,87.12,0,0,1-36.85,11h0a294.88,294.88,0,0,0-80.54-79.75h0c.4-7.33,3.49-21.13,11.94-36.08a72.37,72.37,0,0,1,15.69-19.09,49.67,49.67,0,0,1,19.29-10A37.28,37.28,0,1,0,612.81,114a43.74,43.74,0,0,1,.94,19.82,80.32,80.32,0,0,1-9.46,24.38c-8.73,14.8-21.44,23.33-27.59,27.35h0a291.53,291.53,0,0,0-107.25-28.08h0a86.59,86.59,0,0,1-8.89-37.32,72.27,72.27,0,0,1,4-24.38,49.72,49.72,0,0,1,11.72-18.28,37.28,37.28,0,1,0-53.32.12,43.54,43.54,0,0,1,10.72,16.7,79.84,79.84,0,0,1,4,25.84,87.3,87.3,0,0,1-8.88,37.44h0A291.34,291.34,0,0,0,320.56,186.9h0a86.23,86.23,0,0,1-26.34-27.82A72.2,72.2,0,0,1,285.54,136a49.55,49.55,0,0,1,1-21.69A37.28,37.28,0,1,0,240.43,141a43.33,43.33,0,0,1,17.63,9.1,80,80,0,0,1,16.39,20.38,87.08,87.08,0,0,1,11,36.85h0a294.69,294.69,0,0,0-79.08,79.54h0A86.44,86.44,0,0,1,169.63,276a72.56,72.56,0,0,1-19.09-15.69,49.71,49.71,0,0,1-10-19.3A37.28,37.28,0,1,0,114,287.2a43.47,43.47,0,0,1,19.82-.94,80.32,80.32,0,0,1,24.38,9.46,86.79,86.79,0,0,1,27.93,26.39h0a291.62,291.62,0,0,0-28.66,108.44h0a86.42,86.42,0,0,1-37.32,8.9,72.41,72.41,0,0,1-24.37-4,49.58,49.58,0,0,1-18.28-11.73A37.28,37.28,0,1,0,77.62,477a43.54,43.54,0,0,1,16.7-10.72,80.39,80.39,0,0,1,25.84-4,87.23,87.23,0,0,1,37.44,8.89h0a291.3,291.3,0,0,0,29.3,108.27h0a86.29,86.29,0,0,1-27.83,26.34,72.49,72.49,0,0,1-23.13,8.69,49.7,49.7,0,0,1-21.69-1A37.28,37.28,0,1,0,141,659.58a43.55,43.55,0,0,1,9.1-17.64,80.53,80.53,0,0,1,20.38-16.38,87.16,87.16,0,0,1,36.85-11h0a294.86,294.86,0,0,0,79.54,79.09h0a86.47,86.47,0,0,1-10.94,36.75,72.31,72.31,0,0,1-15.69,19.08,49.53,49.53,0,0,1-19.29,10A37.28,37.28,0,1,0,287.19,786a43.74,43.74,0,0,1-.94-19.82,80.32,80.32,0,0,1,9.46-24.38,87.12,87.12,0,0,1,26.39-27.93h0a291.44,291.44,0,0,0,108.45,28.67h0a86.58,86.58,0,0,1,8.89,37.31,72.23,72.23,0,0,1-4,24.38,49.56,49.56,0,0,1-11.72,18.28,37.28,37.28,0,1,0,53.32-.12,43.5,43.5,0,0,1-10.72-16.69,80,80,0,0,1-4-25.85,87.25,87.25,0,0,1,8.88-37.43h0a291.54,291.54,0,0,0,108.28-29.3h0a86.44,86.44,0,0,1,26.34,27.82,72.37,72.37,0,0,1,8.68,23.13,49.59,49.59,0,0,1-1,21.7A37.28,37.28,0,1,0,659.57,759a43.57,43.57,0,0,1-17.63-9.1,80.33,80.33,0,0,1-16.39-20.38,87.15,87.15,0,0,1-11-36.85h0A288.56,288.56,0,0,0,694.1,612.4Z" fill="none"/></clipPath></defs><title>coronavirus</title><g clip-path="url(#clip-path)"><path d="M450.39,892.89a44.4,44.4,0,0,1-31.81-75.36,42.74,42.74,0,0,0,10.09-15.63,65.51,65.51,0,0,0,3.65-22,80.35,80.35,0,0,0-6.46-30.58,297.36,297.36,0,0,1-103.08-27.25,80.69,80.69,0,0,0-20.93,23.33,73.46,73.46,0,0,0-8.62,22.23c-1,4.84-.73,10.42.86,16.58A44.37,44.37,0,0,1,251,839.69a43.46,43.46,0,0,1-17.53-3.64,44.41,44.41,0,0,1-20.79-62.95A44.14,44.14,0,0,1,239,752.58a42.74,42.74,0,0,0,16.56-8.49,65.81,65.81,0,0,0,14.16-17.22,80.44,80.44,0,0,0,9.69-29.71A299.84,299.84,0,0,1,203.83,622,80.55,80.55,0,0,0,174,631.76a73.27,73.27,0,0,0-18.59,14.93,36.9,36.9,0,0,0-7.54,14.79,44.33,44.33,0,0,1-25.5,29A43.43,43.43,0,0,1,105.24,694,44.4,44.4,0,1,1,116,606.55a48,48,0,0,0,11.74,1.57,36.32,36.32,0,0,0,6.84-.64,65.83,65.83,0,0,0,20.88-7.83,80.3,80.3,0,0,0,23.2-20.86,297.64,297.64,0,0,1-27.84-102.92,80.58,80.58,0,0,0-30.72-6.46h-.68a73.22,73.22,0,0,0-22.88,3.64c-4.7,1.54-9.39,4.58-13.93,9A44.11,44.11,0,0,1,51.52,494.8a46,46,0,0,1-5.5-.33A44.41,44.41,0,0,1,51.51,406a44.14,44.14,0,0,1,31,12.58,42.64,42.64,0,0,0,15.64,10.09,65.55,65.55,0,0,0,21.41,3.66h.58a80.35,80.35,0,0,0,30.58-6.46,297.56,297.56,0,0,1,27.24-103.08,80.49,80.49,0,0,0-23.32-20.93,73.22,73.22,0,0,0-22.23-8.63,29.77,29.77,0,0,0-6-.6,42.72,42.72,0,0,0-10.58,1.47,44.84,44.84,0,0,1-11.12,1.41A44.4,44.4,0,1,1,147.43,239a42.56,42.56,0,0,0,8.49,16.55,65.41,65.41,0,0,0,17.22,14.16,80,80,0,0,0,29.7,9.69A300,300,0,0,1,278,203.84,80.83,80.83,0,0,0,268.25,174a73.22,73.22,0,0,0-14.94-18.58c-3.68-3.3-8.66-5.84-14.79-7.54A44.39,44.39,0,1,1,293.46,116a42.5,42.5,0,0,0-.93,18.58,65.92,65.92,0,0,0,7.83,20.88,80.16,80.16,0,0,0,20.86,23.2,297.42,297.42,0,0,1,102.92-27.84,80.81,80.81,0,0,0,6.46-30.72A73.5,73.5,0,0,0,427,96.54c-1.53-4.7-4.58-9.38-9-13.92a44.39,44.39,0,0,1,26.6-75.21,45.71,45.71,0,0,1,5.09-.29,44.4,44.4,0,0,1,31.82,75.36,42.72,42.72,0,0,0-10.1,15.63,65.6,65.6,0,0,0-3.65,22,80.35,80.35,0,0,0,6.46,30.58,297.3,297.3,0,0,1,102,26.72c6-4.12,15.39-11.48,22.06-22.81a73,73,0,0,0,8.62-22.22,36.51,36.51,0,0,0-.86-16.58A44.38,44.38,0,0,1,649,60.32,43.47,43.47,0,0,1,666.56,64,44.4,44.4,0,0,1,661,147.43a42.75,42.75,0,0,0-16.56,8.5,65.6,65.6,0,0,0-14.16,17.21,89.47,89.47,0,0,0-10.6,29.08A300.09,300.09,0,0,1,696.17,278,80.61,80.61,0,0,0,726,268.25a73.45,73.45,0,0,0,18.59-14.93c3.3-3.69,5.83-8.67,7.53-14.79a44.39,44.39,0,0,1,25.51-29A43.43,43.43,0,0,1,794.76,206,44.4,44.4,0,1,1,784,293.46a47.91,47.91,0,0,0-11.73-1.56,35.54,35.54,0,0,0-6.85.64,65.44,65.44,0,0,0-20.88,7.83,80.16,80.16,0,0,0-23.2,20.86,297.3,297.3,0,0,1,27.84,102.92,81,81,0,0,0,30.72,6.46h.68A73.23,73.23,0,0,0,803.46,427c4.71-1.54,9.39-4.58,13.93-9a44.15,44.15,0,0,1,31.1-12.7,46.25,46.25,0,0,1,5.5.33,44.4,44.4,0,1,1-36.46,75.88,42.64,42.64,0,0,0-15.64-10.09,65.51,65.51,0,0,0-21.41-3.66h-.58a80.35,80.35,0,0,0-30.58,6.46,297.25,297.25,0,0,1-27.25,103.07,80.55,80.55,0,0,0,23.33,20.94,73.46,73.46,0,0,0,22.23,8.62,29.07,29.07,0,0,0,6,.6,42.69,42.69,0,0,0,10.58-1.46A44.39,44.39,0,1,1,752.57,661a42.6,42.6,0,0,0-8.49-16.56,65.45,65.45,0,0,0-17.22-14.16c-9.73-5.5-22.76-8.66-29.45-10A297.08,297.08,0,0,1,622,696.18,80.85,80.85,0,0,0,631.75,726a73.26,73.26,0,0,0,14.94,18.58c3.68,3.3,8.66,5.84,14.79,7.54a44.4,44.4,0,0,1-11.86,87.18h0A44.4,44.4,0,0,1,606.54,784a42.54,42.54,0,0,0,.93-18.59,65.62,65.62,0,0,0-7.83-20.87,80.36,80.36,0,0,0-20.86-23.21,297.43,297.43,0,0,1-102.92,27.85,80.72,80.72,0,0,0-6.46,30.72,73.12,73.12,0,0,0,3.65,23.56,36.65,36.65,0,0,0,9,13.93,44.39,44.39,0,0,1-26.6,75.21A48.23,48.23,0,0,1,450.39,892.89Z" fill="#fff"/><path d="M449.61,14.25a37.27,37.27,0,0,1,26.71,63.26A49.72,49.72,0,0,0,464.6,95.79a72.27,72.27,0,0,0-4,24.38,86.59,86.59,0,0,0,8.89,37.32A291.53,291.53,0,0,1,576.7,185.57c6.14-4,18.86-12.55,27.59-27.35a80.32,80.32,0,0,0,9.46-24.38,43.74,43.74,0,0,0-.94-19.82A37.24,37.24,0,0,1,649,67.45a36.52,36.52,0,0,1,14.66,3A37.28,37.28,0,0,1,659,140.58a49.67,49.67,0,0,0-19.29,10,72.37,72.37,0,0,0-15.69,19.09c-8.45,15-11.54,28.75-11.94,36.08a294.88,294.88,0,0,1,80.54,79.75,87.12,87.12,0,0,0,36.85-11,80.33,80.33,0,0,0,20.38-16.39,43.58,43.58,0,0,0,9.1-17.63,37.23,37.23,0,0,1,21.44-24.38,36.57,36.57,0,0,1,14.33-2.91,37.28,37.28,0,1,1-9,73.41,54.66,54.66,0,0,0-13.48-1.79,43.64,43.64,0,0,0-8.21.77,72.49,72.49,0,0,0-23.13,8.69,86.29,86.29,0,0,0-27.83,26.34,291.35,291.35,0,0,1,29.3,108.27,87.23,87.23,0,0,0,37.44,8.89h.74a80.24,80.24,0,0,0,25.1-4A43.54,43.54,0,0,0,822.38,423a37.15,37.15,0,0,1,26.11-10.67,38.5,38.5,0,0,1,4.64.28,37.28,37.28,0,1,1-30.64,63.71,49.56,49.56,0,0,0-18.28-11.72,72.35,72.35,0,0,0-23.73-4.05h-.64a86.56,86.56,0,0,0-37.32,8.9A291.57,291.57,0,0,1,713.86,577.9a86.79,86.79,0,0,0,27.93,26.39,80.32,80.32,0,0,0,24.38,9.46,36.1,36.1,0,0,0,7.46.75A49.48,49.48,0,0,0,786,612.81a37.28,37.28,0,1,1,9.27,73.38,37.29,37.29,0,0,1-35.83-27.14,49.6,49.6,0,0,0-10-19.29,72.37,72.37,0,0,0-19.09-15.69c-15-8.46-36.27-11.67-36.27-11.67a288.56,288.56,0,0,1-79.56,80.27,87.15,87.15,0,0,0,11,36.85,80.33,80.33,0,0,0,16.39,20.38,43.57,43.57,0,0,0,17.63,9.1,37.28,37.28,0,1,1-46.12,26.76,49.59,49.59,0,0,0,1-21.7,72.37,72.37,0,0,0-8.68-23.13,86.44,86.44,0,0,0-26.34-27.82,291.54,291.54,0,0,1-108.28,29.3,87.25,87.25,0,0,0-8.88,37.43,80.23,80.23,0,0,0,4,25.85A43.5,43.5,0,0,0,477,822.38a37.28,37.28,0,0,1-22.31,63.15,39.14,39.14,0,0,1-4.3.24,37.28,37.28,0,0,1-26.71-63.27,49.64,49.64,0,0,0,11.72-18.28,72.23,72.23,0,0,0,4-24.38,86.67,86.67,0,0,0-8.89-37.32A291.24,291.24,0,0,1,322.1,713.86a87.12,87.12,0,0,0-26.39,27.93,80.32,80.32,0,0,0-9.46,24.38,43.74,43.74,0,0,0,.94,19.82A37.26,37.26,0,0,1,251,832.57a36.53,36.53,0,0,1-14.66-3.05A37.28,37.28,0,0,1,241,759.43a49.53,49.53,0,0,0,19.29-10,72.31,72.31,0,0,0,15.69-19.08,86.47,86.47,0,0,0,10.94-36.75,294.86,294.86,0,0,1-79.54-79.09,87.16,87.16,0,0,0-36.85,11,80.53,80.53,0,0,0-20.38,16.38,43.55,43.55,0,0,0-9.1,17.64A37.23,37.23,0,0,1,119.57,684a36.39,36.39,0,0,1-14.33,2.91,37.27,37.27,0,0,1-18.78-69.55,37.16,37.16,0,0,1,27.79-3.85,55.13,55.13,0,0,0,13.48,1.78,42.83,42.83,0,0,0,8.21-.77,72.49,72.49,0,0,0,23.13-8.69,86.29,86.29,0,0,0,27.83-26.34,291.3,291.3,0,0,1-29.3-108.27,87.23,87.23,0,0,0-37.44-8.89h-.74a80.24,80.24,0,0,0-25.1,4A43.54,43.54,0,0,0,77.62,477a37.11,37.11,0,0,1-26.11,10.68,38.53,38.53,0,0,1-4.64-.29,37.28,37.28,0,1,1,30.64-63.71,49.58,49.58,0,0,0,18.28,11.73,72.65,72.65,0,0,0,23.74,4h.63a86.42,86.42,0,0,0,37.32-8.9,291.62,291.62,0,0,1,28.66-108.44,86.79,86.79,0,0,0-27.93-26.39,80.32,80.32,0,0,0-24.38-9.46,36.1,36.1,0,0,0-7.46-.75A49.48,49.48,0,0,0,114,287.2a37.28,37.28,0,1,1,9.33-68.38A37.13,37.13,0,0,1,140.57,241a49.71,49.71,0,0,0,10,19.3A72.56,72.56,0,0,0,169.63,276a86.44,86.44,0,0,0,36.75,10.94,294.69,294.69,0,0,1,79.08-79.54,87.08,87.08,0,0,0-11-36.85,80,80,0,0,0-16.39-20.38,43.33,43.33,0,0,0-17.63-9.1,37.28,37.28,0,1,1,46.12-26.76,49.55,49.55,0,0,0-1,21.69,72.2,72.2,0,0,0,8.68,23.13,86.33,86.33,0,0,0,26.34,27.82,291.34,291.34,0,0,1,108.28-29.29,87.3,87.3,0,0,0,8.88-37.44,79.84,79.84,0,0,0-4-25.84A43.54,43.54,0,0,0,423,77.63a37.27,37.27,0,0,1,22.31-63.14,39.14,39.14,0,0,1,4.3-.24m0-14.25h0a52.67,52.67,0,0,0-5.88.33,51.52,51.52,0,0,0-30.9,87.28,29.55,29.55,0,0,1,7.36,11.16A66.55,66.55,0,0,1,423.48,120a73.45,73.45,0,0,1-4.35,24.1,304.15,304.15,0,0,0-96.94,26.22,73,73,0,0,1-15.69-18.51,57.68,57.68,0,0,1-7-18.62,35.76,35.76,0,0,1,.84-15.47,51.53,51.53,0,1,0-63.75,37c5.07,1.41,9.09,3.42,11.95,6a66.44,66.44,0,0,1,13.49,16.78,73.72,73.72,0,0,1,8.28,23,306.92,306.92,0,0,0-70.8,71.2,72.91,72.91,0,0,1-22.89-8.21,57.42,57.42,0,0,1-15.34-12.63,35.64,35.64,0,0,1-7-13.82,51.52,51.52,0,0,0-96.85-6.49A51.51,51.51,0,0,0,117.57,301a35.6,35.6,0,0,1,8.8-1.23,22,22,0,0,1,4.54.45A66.17,66.17,0,0,1,151,308a73.54,73.54,0,0,1,18.65,15.79A304.53,304.53,0,0,0,144,420.87,72.9,72.9,0,0,1,120,425.2h-.5a58.5,58.5,0,0,1-19.1-3.27,35.61,35.61,0,0,1-13-8.47,51.52,51.52,0,0,0-74.33,2.59,51.52,51.52,0,0,0,32.05,85.48,54.23,54.23,0,0,0,6.35.38A51.22,51.22,0,0,0,87.6,487.17a29.71,29.71,0,0,1,11.16-7.35,66.3,66.3,0,0,1,20.66-3.29H120a73.45,73.45,0,0,1,24.1,4.35,304,304,0,0,0,26.22,96.93,72.85,72.85,0,0,1-18.51,15.7,57.69,57.69,0,0,1-18.61,7,28.84,28.84,0,0,1-5.5.51,41,41,0,0,1-10-1.34,51.52,51.52,0,1,0-12.51,101.46,50.44,50.44,0,0,0,19.92-4.06,51.46,51.46,0,0,0,29.58-33.66,29.58,29.58,0,0,1,6-11.94A66.22,66.22,0,0,1,177.5,638a73.42,73.42,0,0,1,23.05-8.28,306.84,306.84,0,0,0,71.19,70.79,73,73,0,0,1-8.2,22.89,57.66,57.66,0,0,1-12.63,15.35,35.47,35.47,0,0,1-13.83,7,51.53,51.53,0,0,0-6.49,96.85A50.42,50.42,0,0,0,251,846.81a51.48,51.48,0,0,0,50-64.37,29.55,29.55,0,0,1-.79-13.34A66.19,66.19,0,0,1,308,749a73,73,0,0,1,15.79-18.65A304.2,304.2,0,0,0,420.86,756,72.93,72.93,0,0,1,425.2,780a57.63,57.63,0,0,1-3.27,19.61,35.67,35.67,0,0,1-8.46,13A51.52,51.52,0,0,0,450.39,900a55.16,55.16,0,0,0,5.88-.32,51.53,51.53,0,0,0,30.9-87.29,29.6,29.6,0,0,1-7.36-11.15A66.57,66.57,0,0,1,476.52,780a73.39,73.39,0,0,1,4.35-24.09,304.67,304.67,0,0,0,96.94-26.22,72.86,72.86,0,0,1,15.69,18.51,57.71,57.71,0,0,1,7,18.61,35.81,35.81,0,0,1-.84,15.48,51.53,51.53,0,0,0,80.63,54,51.52,51.52,0,0,0-16.89-91c-5.06-1.41-9.08-3.42-11.94-6A66.26,66.26,0,0,1,638,722.5a73.23,73.23,0,0,1-8.27-23,304.18,304.18,0,0,0,70.86-71.23c6.59,1.56,15.74,4.24,22.82,8.24A57.61,57.61,0,0,1,738.7,649.1a35.64,35.64,0,0,1,7,13.82,51.52,51.52,0,0,0,96.85,6.5A51.51,51.51,0,0,0,782.43,599a35.64,35.64,0,0,1-8.8,1.24,22,22,0,0,1-4.54-.45A66.19,66.19,0,0,1,749,592a73.54,73.54,0,0,1-18.65-15.79A304.47,304.47,0,0,0,756,479.15,72.88,72.88,0,0,1,780,474.81h.51a57.71,57.71,0,0,1,19.09,3.27,35.57,35.57,0,0,1,13,8.46A51.52,51.52,0,0,0,886.89,484a51.51,51.51,0,0,0-38.4-85.86,51.24,51.24,0,0,0-36.09,14.75c-3.75,3.68-7.51,6.16-11.16,7.35a66,66,0,0,1-20.66,3.3H780a73.74,73.74,0,0,1-24.1-4.34,304.08,304.08,0,0,0-26.22-96.94,72.85,72.85,0,0,1,18.51-15.7,57.69,57.69,0,0,1,18.61-7,28.84,28.84,0,0,1,5.5-.51,40.55,40.55,0,0,1,10,1.35,51.52,51.52,0,1,0,12.51-101.46A50.43,50.43,0,0,0,774.84,203a51.46,51.46,0,0,0-29.58,33.66,29.69,29.69,0,0,1-6,11.95,66.18,66.18,0,0,1-16.78,13.48,73.42,73.42,0,0,1-23,8.28A306.71,306.71,0,0,0,627.54,199a84.91,84.91,0,0,1,8.92-22.38,57.81,57.81,0,0,1,12.63-15.35,35.74,35.74,0,0,1,13.83-7,51.53,51.53,0,0,0,6.49-96.85A50.59,50.59,0,0,0,649,53.2a51.5,51.5,0,0,0-50,64.38,29.54,29.54,0,0,1,.79,13.34A66.29,66.29,0,0,1,592,151a64.49,64.49,0,0,1-16.73,18.22A304.41,304.41,0,0,0,479.14,144,72.93,72.93,0,0,1,474.8,120a57.57,57.57,0,0,1,3.27-19.6,35.7,35.7,0,0,1,8.46-13A51.52,51.52,0,0,0,449.61,0Z" fill="#353536"/><path d="M680.34,678.47c-12.56-1.41-25.07-3.11-37.57-4.94a89,89,0,0,1-74-2.7c-.63,0-1.27.07-1.9.07a89.22,89.22,0,0,1-51.17-15.84l-1.63-.34c-81.64-1-158.21-39.16-219.29-91.78C250,524.38,212,472.3,189.42,415.92a261.6,261.6,0,0,1-25.89-74,144,144,0,0,1-2.17-17.59H-168v735.06H752.52V686.22Q716.34,683.35,680.34,678.47Z" fill="#f7e37c"/></g><path d="M449.61,14.25a37.27,37.27,0,0,1,26.71,63.26A49.72,49.72,0,0,0,464.6,95.79a72.27,72.27,0,0,0-4,24.38,86.59,86.59,0,0,0,8.89,37.32A291.53,291.53,0,0,1,576.7,185.57c6.14-4,18.86-12.55,27.59-27.35a80.32,80.32,0,0,0,9.46-24.38,43.74,43.74,0,0,0-.94-19.82A37.24,37.24,0,0,1,649,67.45a36.52,36.52,0,0,1,14.66,3A37.28,37.28,0,0,1,659,140.58a49.67,49.67,0,0,0-19.29,10,72.37,72.37,0,0,0-15.69,19.09c-8.45,15-11.54,28.75-11.94,36.08a294.88,294.88,0,0,1,80.54,79.75,87.12,87.12,0,0,0,36.85-11,80.33,80.33,0,0,0,20.38-16.39,43.58,43.58,0,0,0,9.1-17.63,37.23,37.23,0,0,1,21.44-24.38,36.57,36.57,0,0,1,14.33-2.91,37.28,37.28,0,1,1-9,73.41,54.66,54.66,0,0,0-13.48-1.79,43.64,43.64,0,0,0-8.21.77,72.49,72.49,0,0,0-23.13,8.69,86.29,86.29,0,0,0-27.83,26.34,291.35,291.35,0,0,1,29.3,108.27,87.23,87.23,0,0,0,37.44,8.89h.74a80.24,80.24,0,0,0,25.1-4A43.54,43.54,0,0,0,822.38,423a37.15,37.15,0,0,1,26.11-10.67,38.5,38.5,0,0,1,4.64.28,37.28,37.28,0,1,1-30.64,63.71,49.56,49.56,0,0,0-18.28-11.72,72.35,72.35,0,0,0-23.73-4.05h-.64a86.56,86.56,0,0,0-37.32,8.9A291.57,291.57,0,0,1,713.86,577.9a86.79,86.79,0,0,0,27.93,26.39,80.32,80.32,0,0,0,24.38,9.46,36.1,36.1,0,0,0,7.46.75A49.48,49.48,0,0,0,786,612.81a37.28,37.28,0,1,1,9.27,73.38,37.29,37.29,0,0,1-35.83-27.14,49.6,49.6,0,0,0-10-19.29,72.37,72.37,0,0,0-19.09-15.69c-15-8.46-36.27-11.67-36.27-11.67a288.56,288.56,0,0,1-79.56,80.27,87.15,87.15,0,0,0,11,36.85,80.33,80.33,0,0,0,16.39,20.38,43.57,43.57,0,0,0,17.63,9.1,37.28,37.28,0,1,1-46.12,26.76,49.59,49.59,0,0,0,1-21.7,72.37,72.37,0,0,0-8.68-23.13,86.44,86.44,0,0,0-26.34-27.82,291.54,291.54,0,0,1-108.28,29.3,87.25,87.25,0,0,0-8.88,37.43,80.23,80.23,0,0,0,4,25.85A43.5,43.5,0,0,0,477,822.38a37.28,37.28,0,0,1-22.31,63.15,39.14,39.14,0,0,1-4.3.24,37.28,37.28,0,0,1-26.71-63.27,49.64,49.64,0,0,0,11.72-18.28,72.23,72.23,0,0,0,4-24.38,86.67,86.67,0,0,0-8.89-37.32A291.24,291.24,0,0,1,322.1,713.86a87.12,87.12,0,0,0-26.39,27.93,80.32,80.32,0,0,0-9.46,24.38,43.74,43.74,0,0,0,.94,19.82A37.26,37.26,0,0,1,251,832.57a36.53,36.53,0,0,1-14.66-3.05A37.28,37.28,0,0,1,241,759.43a49.53,49.53,0,0,0,19.29-10,72.31,72.31,0,0,0,15.69-19.08,86.47,86.47,0,0,0,10.94-36.75,294.86,294.86,0,0,1-79.54-79.09,87.16,87.16,0,0,0-36.85,11,80.53,80.53,0,0,0-20.38,16.38,43.55,43.55,0,0,0-9.1,17.64A37.23,37.23,0,0,1,119.57,684a36.39,36.39,0,0,1-14.33,2.91,37.27,37.27,0,0,1-18.78-69.55,37.16,37.16,0,0,1,27.79-3.85,55.13,55.13,0,0,0,13.48,1.78,42.83,42.83,0,0,0,8.21-.77,72.49,72.49,0,0,0,23.13-8.69,86.29,86.29,0,0,0,27.83-26.34,291.3,291.3,0,0,1-29.3-108.27,87.23,87.23,0,0,0-37.44-8.89h-.74a80.24,80.24,0,0,0-25.1,4A43.54,43.54,0,0,0,77.62,477a37.11,37.11,0,0,1-26.11,10.68,38.53,38.53,0,0,1-4.64-.29,37.28,37.28,0,1,1,30.64-63.71,49.58,49.58,0,0,0,18.28,11.73,72.65,72.65,0,0,0,23.74,4h.63a86.42,86.42,0,0,0,37.32-8.9,291.62,291.62,0,0,1,28.66-108.44,86.79,86.79,0,0,0-27.93-26.39,80.32,80.32,0,0,0-24.38-9.46,36.1,36.1,0,0,0-7.46-.75A49.48,49.48,0,0,0,114,287.2a37.28,37.28,0,1,1,9.33-68.38A37.13,37.13,0,0,1,140.57,241a49.71,49.71,0,0,0,10,19.3A72.56,72.56,0,0,0,169.63,276a86.44,86.44,0,0,0,36.75,10.94,294.69,294.69,0,0,1,79.08-79.54,87.08,87.08,0,0,0-11-36.85,80,80,0,0,0-16.39-20.38,43.33,43.33,0,0,0-17.63-9.1,37.28,37.28,0,1,1,46.12-26.76,49.55,49.55,0,0,0-1,21.69,72.2,72.2,0,0,0,8.68,23.13,86.33,86.33,0,0,0,26.34,27.82,291.34,291.34,0,0,1,108.28-29.29,87.3,87.3,0,0,0,8.88-37.44,79.84,79.84,0,0,0-4-25.84A43.54,43.54,0,0,0,423,77.63a37.27,37.27,0,0,1,22.31-63.14,39.14,39.14,0,0,1,4.3-.24m0-14.25h0a52.67,52.67,0,0,0-5.88.33,51.52,51.52,0,0,0-30.9,87.28,29.55,29.55,0,0,1,7.36,11.16A66.55,66.55,0,0,1,423.48,120a73.45,73.45,0,0,1-4.35,24.1,304.15,304.15,0,0,0-96.94,26.22,73,73,0,0,1-15.69-18.51,57.68,57.68,0,0,1-7-18.62,35.76,35.76,0,0,1,.84-15.47,51.53,51.53,0,1,0-63.75,37c5.07,1.41,9.09,3.42,11.95,6a66.44,66.44,0,0,1,13.49,16.78,73.72,73.72,0,0,1,8.28,23,306.92,306.92,0,0,0-70.8,71.2,72.91,72.91,0,0,1-22.89-8.21,57.42,57.42,0,0,1-15.34-12.63,35.64,35.64,0,0,1-7-13.82,51.52,51.52,0,0,0-96.85-6.49A51.51,51.51,0,0,0,117.57,301a35.6,35.6,0,0,1,8.8-1.23,22,22,0,0,1,4.54.45A66.17,66.17,0,0,1,151,308a73.54,73.54,0,0,1,18.65,15.79A304.53,304.53,0,0,0,144,420.87,72.9,72.9,0,0,1,120,425.2h-.5a58.5,58.5,0,0,1-19.1-3.27,35.61,35.61,0,0,1-13-8.47,51.52,51.52,0,0,0-74.33,2.59,51.52,51.52,0,0,0,32.05,85.48,54.23,54.23,0,0,0,6.35.38A51.22,51.22,0,0,0,87.6,487.17a29.71,29.71,0,0,1,11.16-7.35,66.3,66.3,0,0,1,20.66-3.29H120a73.45,73.45,0,0,1,24.1,4.35,304,304,0,0,0,26.22,96.93,72.85,72.85,0,0,1-18.51,15.7,57.69,57.69,0,0,1-18.61,7,28.84,28.84,0,0,1-5.5.51,41,41,0,0,1-10-1.34,51.52,51.52,0,1,0-12.51,101.46,50.44,50.44,0,0,0,19.92-4.06,51.46,51.46,0,0,0,29.58-33.66,29.58,29.58,0,0,1,6-11.94A66.22,66.22,0,0,1,177.5,638a73.42,73.42,0,0,1,23.05-8.28,306.84,306.84,0,0,0,71.19,70.79,73,73,0,0,1-8.2,22.89,57.66,57.66,0,0,1-12.63,15.35,35.47,35.47,0,0,1-13.83,7,51.53,51.53,0,0,0-6.49,96.85A50.42,50.42,0,0,0,251,846.81a51.48,51.48,0,0,0,50-64.37,29.55,29.55,0,0,1-.79-13.34A66.19,66.19,0,0,1,308,749a73,73,0,0,1,15.79-18.65A304.2,304.2,0,0,0,420.86,756,72.93,72.93,0,0,1,425.2,780a57.63,57.63,0,0,1-3.27,19.61,35.67,35.67,0,0,1-8.46,13A51.52,51.52,0,0,0,450.39,900a55.16,55.16,0,0,0,5.88-.32,51.53,51.53,0,0,0,30.9-87.29,29.6,29.6,0,0,1-7.36-11.15A66.57,66.57,0,0,1,476.52,780a73.39,73.39,0,0,1,4.35-24.09,304.67,304.67,0,0,0,96.94-26.22,72.86,72.86,0,0,1,15.69,18.51,57.71,57.71,0,0,1,7,18.61,35.81,35.81,0,0,1-.84,15.48,51.53,51.53,0,0,0,80.63,54,51.52,51.52,0,0,0-16.89-91c-5.06-1.41-9.08-3.42-11.94-6A66.26,66.26,0,0,1,638,722.5a73.23,73.23,0,0,1-8.27-23,304.18,304.18,0,0,0,70.86-71.23c6.59,1.56,15.74,4.24,22.82,8.24A57.61,57.61,0,0,1,738.7,649.1a35.64,35.64,0,0,1,7,13.82,51.52,51.52,0,0,0,96.85,6.5A51.51,51.51,0,0,0,782.43,599a35.64,35.64,0,0,1-8.8,1.24,22,22,0,0,1-4.54-.45A66.19,66.19,0,0,1,749,592a73.54,73.54,0,0,1-18.65-15.79A304.47,304.47,0,0,0,756,479.15,72.88,72.88,0,0,1,780,474.81h.51a57.71,57.71,0,0,1,19.09,3.27,35.57,35.57,0,0,1,13,8.46A51.52,51.52,0,0,0,886.89,484a51.51,51.51,0,0,0-38.4-85.86,51.24,51.24,0,0,0-36.09,14.75c-3.75,3.68-7.51,6.16-11.16,7.35a66,66,0,0,1-20.66,3.3H780a73.74,73.74,0,0,1-24.1-4.34,304.08,304.08,0,0,0-26.22-96.94,72.85,72.85,0,0,1,18.51-15.7,57.69,57.69,0,0,1,18.61-7,28.84,28.84,0,0,1,5.5-.51,40.55,40.55,0,0,1,10,1.35,51.52,51.52,0,1,0,12.51-101.46A50.43,50.43,0,0,0,774.84,203a51.46,51.46,0,0,0-29.58,33.66,29.69,29.69,0,0,1-6,11.95,66.18,66.18,0,0,1-16.78,13.48,73.42,73.42,0,0,1-23,8.28A306.71,306.71,0,0,0,627.54,199a84.91,84.91,0,0,1,8.92-22.38,57.81,57.81,0,0,1,12.63-15.35,35.74,35.74,0,0,1,13.83-7,51.53,51.53,0,0,0,6.49-96.85A50.59,50.59,0,0,0,649,53.2a51.5,51.5,0,0,0-50,64.38,29.54,29.54,0,0,1,.79,13.34A66.29,66.29,0,0,1,592,151a64.49,64.49,0,0,1-16.73,18.22A304.41,304.41,0,0,0,479.14,144,72.93,72.93,0,0,1,474.8,120a57.57,57.57,0,0,1,3.27-19.6,35.7,35.7,0,0,1,8.46-13A51.52,51.52,0,0,0,449.61,0Z" fill="#353536"/><circle cx="528.27" cy="624.8" r="32.71" fill="#f7e37c"/><circle cx="339.88" cy="586.28" r="32.71" fill="#f7e37c"/><circle cx="398.42" cy="262.56" r="32.71" fill="#f7e37c"/><circle cx="657.35" cy="483.56" r="32.71" fill="#f7e37c"/><circle cx="601.86" cy="312.23" r="32.71" fill="#f7e37c"/><circle cx="282.55" cy="415.89" r="32.71" fill="#f7e37c"/><circle cx="472.76" cy="440.08" r="32.71" fill="#f7e37c"/><path d="M505.49,602A32.71,32.71,0,1,1,486,608.49,32.67,32.67,0,0,1,505.49,602m0-14.25h0a47,47,0,0,0-37.65,75,47.19,47.19,0,0,0,37.7,18.92,47,47,0,0,0,37.64-75,47.19,47.19,0,0,0-37.69-18.93Z" fill="#353536"/><path d="M317.1,563.5A32.71,32.71,0,1,1,297.59,570a32.66,32.66,0,0,1,19.51-6.47m0-14.24h0a47,47,0,0,0-37.65,75,47.19,47.19,0,0,0,37.7,18.92,47,47,0,0,0,37.64-75,47.18,47.18,0,0,0-37.69-18.92Z" fill="#353536"/><path d="M375.64,239.78a32.71,32.71,0,1,1-19.51,6.47,32.66,32.66,0,0,1,19.51-6.47m0-14.25h0a47,47,0,0,0-37.65,75,47.2,47.2,0,0,0,37.7,18.92,46.95,46.95,0,0,0,37.64-75,47.19,47.19,0,0,0-37.69-18.93Z" fill="#353536"/><path d="M634.56,460.78a32.71,32.71,0,1,1-19.5,6.47,32.65,32.65,0,0,1,19.5-6.47m0-14.25h0a47,47,0,0,0-37.64,75,47.19,47.19,0,0,0,37.7,18.92,47,47,0,0,0,37.64-75,47.21,47.21,0,0,0-37.7-18.92Z" fill="#353536"/><path d="M579.07,289.45a32.71,32.71,0,1,1-19.5,6.47,32.68,32.68,0,0,1,19.5-6.47m0-14.25h0a47,47,0,0,0-37.65,75,47.19,47.19,0,0,0,37.7,18.92,47,47,0,0,0,37.64-75,47.19,47.19,0,0,0-37.69-18.93Z" fill="#353536"/><path d="M259.77,393.1a32.72,32.72,0,1,1-19.5,6.48,32.66,32.66,0,0,1,19.5-6.48m0-14.24h0a47,47,0,0,0-37.64,75,47.19,47.19,0,0,0,37.69,18.93,47,47,0,0,0,37.65-75,47.19,47.19,0,0,0-37.7-18.92Z" fill="#353536"/><path d="M450,417.29a32.72,32.72,0,1,1-19.5,6.48,32.66,32.66,0,0,1,19.5-6.48m0-14.24h0a47,47,0,0,0-37.65,75A47.19,47.19,0,0,0,450,497a47,47,0,0,0,37.64-75A47.18,47.18,0,0,0,450,403.05Z" fill="#353536"/></svg>